<svg xmlns="http://www.w3.org/2000/svg" width="60" height="50" viewBox="0 0 60 50">
  <path id="share-share-05bc80decc41686a036db7369c2baea3" d="M105.413,101.778c-3.008,0-5.455-2.039-5.455-4.545s2.446-4.545,5.455-4.545,5.454,2.039,5.454,4.545-2.446,4.545-5.454,4.545M67.231,85.868c-3.008,0-5.455-2.039-5.455-4.545s2.446-4.545,5.455-4.545,5.455,2.039,5.455,4.545-2.446,4.545-5.455,4.545m38.182-25c3.008,0,5.454,2.039,5.454,4.545s-2.446,4.545-5.454,4.545-5.455-2.039-5.455-4.545,2.446-4.545,5.455-4.545m0,27.273c-4.2.009-8.028,2.035-9.821,5.2L78.129,85.032A3.008,3.008,0,0,0,77.3,84.8a7.779,7.779,0,0,0,.837-3.482,7.5,7.5,0,0,0-.169-1.382c.052-.023.109-.03.158-.055l18.717-8.911a11.728,11.728,0,0,0,8.566,3.53c6.016,0,10.909-4.077,10.909-9.091s-4.893-9.091-10.909-9.091S94.5,60.4,94.5,65.414a7.64,7.64,0,0,0,.169,1.393c-.052.02-.109.018-.158.043L75.8,75.762a11.728,11.728,0,0,0-8.567-3.529c-6.016,0-10.909,4.077-10.909,9.091s4.893,9.091,10.909,9.091A12.112,12.112,0,0,0,74.437,88.1a2.442,2.442,0,0,0,.987.882l19.091,9.091c.03.016.063.018.1.032.532,4.6,5.144,8.223,10.8,8.223,6.016,0,10.909-4.077,10.909-9.091s-4.893-9.091-10.909-9.091" transform="translate(-56.322 -56.323)" fill="#008cb7"/>
</svg>
