<svg xmlns="http://www.w3.org/2000/svg" width="59.714" height="50" viewBox="0 0 59.714 50">
  <g id="function-icon-3ac76656a0824d72452f998d2b50decf" transform="translate(0.611 -0.045)">
    <path id="Path_1" data-name="Path 1" d="M23.519,16.584l-3.268,12.63q-2.291,8.94-4.469,12.958a16.116,16.116,0,0,1-5.1,5.946A11.859,11.859,0,0,1,4,50.045a5.59,5.59,0,0,1-3.491-.888A2.617,2.617,0,0,1-.611,47.066a2.518,2.518,0,0,1,.922-1.941,3.519,3.519,0,0,1,2.43-.82,2.711,2.711,0,0,1,1.926.629,2.084,2.084,0,0,1,.67,1.585,1.783,1.783,0,0,1-.418,1.3q-.419.424-.418.561l.139.191a.6.6,0,0,0,.391.136,2.073,2.073,0,0,0,1.424-.52A7.925,7.925,0,0,0,8.66,45.07q.5-1.257,1.926-6.643l3.238-12.413,2.46-9.429H12.4l.922-3.2a6.2,6.2,0,0,0,3.044-.52,6.388,6.388,0,0,0,2.01-2.461,23.437,23.437,0,0,1,6.479-7.955,12.871,12.871,0,0,1,7.6-2.406,6.065,6.065,0,0,1,3.9,1.011,3.254,3.254,0,0,1,1.214,2.625,3.1,3.1,0,0,1-.81,2.255,2.689,2.689,0,0,1-2.01.834A2.585,2.585,0,0,1,32.9,6.088a2.172,2.172,0,0,1-.726-1.64A2.831,2.831,0,0,1,32.634,3a2.714,2.714,0,0,0,.46-1.039.633.633,0,0,0-.21-.492.778.778,0,0,0-.544-.191,4.725,4.725,0,0,0-3.379,2q-2.848,3.2-4.58,10.115H28.43l-.977,3.2H23.519Z" transform="translate(0 0)" fill="#008cb7"/>
    <path id="Path_2" data-name="Path 2" d="M32.665,15.279,44.69,13.521a27.1,27.1,0,0,1,4.617,9.609,73.188,73.188,0,0,1,5.1-5.947,15.058,15.058,0,0,1,3.807-2.974,7.561,7.561,0,0,1,3.187-.688,4.325,4.325,0,0,1,2.912.879,2.981,2.981,0,0,1,1.016,2.373,2.926,2.926,0,0,1-1.016,2.3,3.7,3.7,0,0,1-2.532.894,11.163,11.163,0,0,1-2.532-.337,10.43,10.43,0,0,0-1.982-.337,4.868,4.868,0,0,0-2.757.879A19.3,19.3,0,0,0,50.1,25.3q2.928,8.789,4.685,10.723a2.9,2.9,0,0,0,2.1,1.143,3.026,3.026,0,0,0,1.55-.381A16.36,16.36,0,0,0,61.5,33.708l1.241.615a20.957,20.957,0,0,1-5.926,5.859A8.423,8.423,0,0,1,52.476,41.5a7.319,7.319,0,0,1-3.669-.835,7.435,7.435,0,0,1-2.6-2.725,39.15,39.15,0,0,1-2.687-6.05q-4.031,4.365-6.323,6.372a14.881,14.881,0,0,1-3.807,2.622,8.536,8.536,0,0,1-3.24.616,4.293,4.293,0,0,1-2.843-.879,2.838,2.838,0,0,1-1.051-2.285,3.088,3.088,0,0,1,1.137-2.461,4.311,4.311,0,0,1,2.894-.967,5.732,5.732,0,0,1,2.1.469,7.718,7.718,0,0,0,2.48.7,4.362,4.362,0,0,0,1.791-.352,10.2,10.2,0,0,0,2.619-1.9q.965-.907,3.549-3.867-3.308-10.429-5.169-12.48A3.792,3.792,0,0,0,34.7,16.159a13.632,13.632,0,0,0-2.275.234Z" transform="translate(-6.225 3.114)" fill="#008cb7"/>
  </g>
</svg>
