<svg xmlns="http://www.w3.org/2000/svg" width="60" height="50" viewBox="0 0 60 50">
  <path id="skill-reuse" d="M59.545,156.776a42.928,42.928,0,0,0,.5-9.205c-1.111-16.063-18.23-23.946-30.375-20.658,9.144,3.382,18.443,12.6,18.512,23.508a26.482,26.482,0,0,1-.278,3.946l-9.817-1.1,6.363,7.867L50.809,169l8.212-5.592,8.212-5.584ZM14.892,144.931a42.839,42.839,0,0,0-.719,9.185c.726,16.091,17.656,24.429,29.873,21.473-9.064-3.634-18.139-13.09-17.949-24a26.661,26.661,0,0,1,.373-3.934l9.786,1.354-6.169-8.029-6.169-8.042L15.577,138.3,7.232,143.67Z" transform="translate(-7.232 -126.177)" fill="#008cb7"/>
</svg>
